<mxfile host="app.diagrams.net" modified="2021-03-06T05:55:45.581Z" agent="5.0 (Macintosh; Intel Mac OS X 10_15_7) AppleWebKit/537.36 (KHTML, like Gecko) Chrome/86.0.4240.193 Safari/537.36" etag="b8iVXZRt8KLorpryWAZO" version="14.4.4" type="github">
  <diagram id="vjp4ESPVKD8x642jj7Wz" name="Page-1">
    <mxGraphModel dx="946" dy="536" grid="1" gridSize="10" guides="1" tooltips="1" connect="1" arrows="1" fold="1" page="1" pageScale="1" pageWidth="827" pageHeight="1169" math="0" shadow="0">
      <root>
        <mxCell id="0" />
        <mxCell id="1" parent="0" />
        <mxCell id="lAeavhOCIAYrIJoUlIZf-4" style="edgeStyle=orthogonalEdgeStyle;rounded=0;orthogonalLoop=1;jettySize=auto;html=1;exitX=1;exitY=0.25;exitDx=0;exitDy=0;entryX=0;entryY=0.25;entryDx=0;entryDy=0;" edge="1" parent="1" source="lAeavhOCIAYrIJoUlIZf-1" target="lAeavhOCIAYrIJoUlIZf-3">
          <mxGeometry relative="1" as="geometry" />
        </mxCell>
        <mxCell id="lAeavhOCIAYrIJoUlIZf-1" value="pred" style="rounded=1;whiteSpace=wrap;html=1;fillColor=#ffe6cc;strokeColor=#d79b00;" vertex="1" parent="1">
          <mxGeometry x="100" y="170" width="100" height="50" as="geometry" />
        </mxCell>
        <mxCell id="lAeavhOCIAYrIJoUlIZf-5" style="edgeStyle=orthogonalEdgeStyle;rounded=0;orthogonalLoop=1;jettySize=auto;html=1;exitX=0;exitY=0.75;exitDx=0;exitDy=0;entryX=1;entryY=0.75;entryDx=0;entryDy=0;" edge="1" parent="1" source="lAeavhOCIAYrIJoUlIZf-3" target="lAeavhOCIAYrIJoUlIZf-1">
          <mxGeometry relative="1" as="geometry" />
        </mxCell>
        <mxCell id="lAeavhOCIAYrIJoUlIZf-3" value="node" style="rounded=1;whiteSpace=wrap;html=1;fillColor=#ffe6cc;strokeColor=#d79b00;" vertex="1" parent="1">
          <mxGeometry x="290" y="170" width="100" height="50" as="geometry" />
        </mxCell>
        <mxCell id="lAeavhOCIAYrIJoUlIZf-6" value="next" style="text;html=1;strokeColor=none;fillColor=none;align=center;verticalAlign=middle;whiteSpace=wrap;rounded=0;" vertex="1" parent="1">
          <mxGeometry x="220" y="150" width="40" height="20" as="geometry" />
        </mxCell>
        <mxCell id="lAeavhOCIAYrIJoUlIZf-7" value="prev" style="text;html=1;strokeColor=none;fillColor=none;align=center;verticalAlign=middle;whiteSpace=wrap;rounded=0;" vertex="1" parent="1">
          <mxGeometry x="220" y="220" width="40" height="20" as="geometry" />
        </mxCell>
        <mxCell id="lAeavhOCIAYrIJoUlIZf-9" style="edgeStyle=orthogonalEdgeStyle;rounded=0;orthogonalLoop=1;jettySize=auto;html=1;entryX=0.5;entryY=0;entryDx=0;entryDy=0;" edge="1" parent="1" source="lAeavhOCIAYrIJoUlIZf-8" target="lAeavhOCIAYrIJoUlIZf-3">
          <mxGeometry relative="1" as="geometry" />
        </mxCell>
        <mxCell id="lAeavhOCIAYrIJoUlIZf-8" value="tail" style="text;html=1;strokeColor=none;fillColor=none;align=center;verticalAlign=middle;whiteSpace=wrap;rounded=0;" vertex="1" parent="1">
          <mxGeometry x="320" y="80" width="40" height="20" as="geometry" />
        </mxCell>
        <mxCell id="lAeavhOCIAYrIJoUlIZf-19" style="rounded=0;orthogonalLoop=1;jettySize=auto;html=1;exitX=1;exitY=0.25;exitDx=0;exitDy=0;entryX=0;entryY=0.5;entryDx=0;entryDy=0;" edge="1" parent="1" source="lAeavhOCIAYrIJoUlIZf-11" target="lAeavhOCIAYrIJoUlIZf-14">
          <mxGeometry relative="1" as="geometry" />
        </mxCell>
        <mxCell id="lAeavhOCIAYrIJoUlIZf-11" value="pred" style="rounded=1;whiteSpace=wrap;html=1;fillColor=#ffe6cc;strokeColor=#d79b00;" vertex="1" parent="1">
          <mxGeometry x="100" y="450" width="100" height="50" as="geometry" />
        </mxCell>
        <mxCell id="lAeavhOCIAYrIJoUlIZf-12" style="edgeStyle=orthogonalEdgeStyle;rounded=0;orthogonalLoop=1;jettySize=auto;html=1;exitX=0;exitY=0.75;exitDx=0;exitDy=0;entryX=1;entryY=0.75;entryDx=0;entryDy=0;" edge="1" parent="1" source="lAeavhOCIAYrIJoUlIZf-13" target="lAeavhOCIAYrIJoUlIZf-11">
          <mxGeometry relative="1" as="geometry" />
        </mxCell>
        <mxCell id="lAeavhOCIAYrIJoUlIZf-13" value="node" style="rounded=1;whiteSpace=wrap;html=1;fillColor=#ffe6cc;strokeColor=#d79b00;" vertex="1" parent="1">
          <mxGeometry x="290" y="450" width="100" height="50" as="geometry" />
        </mxCell>
        <mxCell id="lAeavhOCIAYrIJoUlIZf-14" value="null" style="text;html=1;strokeColor=none;fillColor=none;align=center;verticalAlign=middle;whiteSpace=wrap;rounded=0;" vertex="1" parent="1">
          <mxGeometry x="320" y="400" width="40" height="20" as="geometry" />
        </mxCell>
        <mxCell id="lAeavhOCIAYrIJoUlIZf-15" value="prev" style="text;html=1;strokeColor=none;fillColor=none;align=center;verticalAlign=middle;whiteSpace=wrap;rounded=0;" vertex="1" parent="1">
          <mxGeometry x="220" y="500" width="40" height="20" as="geometry" />
        </mxCell>
        <mxCell id="lAeavhOCIAYrIJoUlIZf-18" style="edgeStyle=orthogonalEdgeStyle;rounded=0;orthogonalLoop=1;jettySize=auto;html=1;entryX=0.5;entryY=0;entryDx=0;entryDy=0;" edge="1" parent="1" source="lAeavhOCIAYrIJoUlIZf-17" target="lAeavhOCIAYrIJoUlIZf-11">
          <mxGeometry relative="1" as="geometry" />
        </mxCell>
        <mxCell id="lAeavhOCIAYrIJoUlIZf-17" value="tail" style="text;html=1;strokeColor=none;fillColor=none;align=center;verticalAlign=middle;whiteSpace=wrap;rounded=0;" vertex="1" parent="1">
          <mxGeometry x="130" y="360" width="40" height="20" as="geometry" />
        </mxCell>
        <mxCell id="lAeavhOCIAYrIJoUlIZf-20" value="" style="shape=flexArrow;endArrow=classic;html=1;fillColor=#f8cecc;strokeColor=#b85450;" edge="1" parent="1">
          <mxGeometry width="50" height="50" relative="1" as="geometry">
            <mxPoint x="239.5" y="300" as="sourcePoint" />
            <mxPoint x="239.5" y="350" as="targetPoint" />
          </mxGeometry>
        </mxCell>
      </root>
    </mxGraphModel>
  </diagram>
</mxfile>
